<svg width="1305" height="124" viewBox="0 0 1305 124" fill="none" xmlns="http://www.w3.org/2000/svg">
<path fill-rule="evenodd" clip-rule="evenodd" d="M42.2457 84.8746L61.3638 4.11719H81.5L100.672 84.8759L116.36 4.11719H139.999L114.371 120H90.2549L71.3787 43.9489L52.6089 120H28.4932L2.78564 4.11719H26.4238L42.2457 84.8746ZM26.8882 122L0.293335 2.11719H28.07L42.4301 75.4137L59.782 2.11719H83.0808L100.477 75.394L114.711 2.11719H142.489L115.977 122H88.6906L71.3842 52.2734L54.1753 122H26.8882ZM223.488 69.938H176.849V120H152.972V4.11719H176.849V51.314H223.488V4.11719H247.286V120H223.488V69.938ZM221.488 49.314V2.11719H249.286V122H221.488V71.938H178.849V122H150.972V2.11719H178.849V49.314H221.488ZM351.059 107.792L351.052 107.8C346.506 112.9 341.068 116.812 334.754 119.527C328.479 122.248 321.545 123.592 313.982 123.592C306.47 123.592 299.538 122.247 293.215 119.529L293.209 119.527C286.949 116.812 281.515 112.902 276.92 107.809L276.913 107.801C272.314 102.648 268.766 96.4424 266.25 89.2202L266.245 89.2074C263.775 81.9604 262.557 73.8311 262.557 64.8442V59.3525C262.557 50.3145 263.774 42.1829 266.247 34.985C268.709 27.7646 272.201 21.5588 276.746 16.4043L276.754 16.3953C281.348 11.2472 286.785 7.30703 293.05 4.59038L293.056 4.58783C299.379 1.86999 306.31 0.525391 313.823 0.525391C321.385 0.525391 328.318 1.86881 334.593 4.58937C340.911 7.30542 346.351 11.2467 350.896 16.4008C355.494 21.5536 359.013 27.7583 361.476 34.978C364.004 42.1786 365.248 50.3127 365.248 59.3525V64.8442C365.248 73.8311 364.03 81.9604 361.56 89.2074C359.097 96.4297 355.604 102.637 351.059 107.792ZM359.587 35.6348C357.199 28.6309 353.803 22.6616 349.399 17.7271C345.048 12.7925 339.849 9.02523 333.8 6.42529C327.804 3.82536 321.145 2.52539 313.823 2.52539C306.554 2.52539 299.895 3.82536 293.846 6.42529C287.85 9.02523 282.65 12.7925 278.246 17.7271C273.895 22.6616 270.526 28.6309 268.138 35.6348C265.75 42.5856 264.557 50.4915 264.557 59.3525V64.8442C264.557 73.6522 265.75 81.5581 268.138 88.562C270.579 95.5659 274.001 101.535 278.405 106.47C282.809 111.351 288.009 115.092 294.005 117.692C300.054 120.292 306.713 121.592 313.982 121.592C321.304 121.592 327.963 120.292 333.959 117.692C340.008 115.092 345.208 111.351 349.559 106.47C353.91 101.535 357.279 95.5659 359.667 88.562C362.054 81.5581 363.248 73.6522 363.248 64.8442V59.3525C363.248 50.4915 362.028 42.5856 359.587 35.6348ZM323.649 25.7914L323.637 25.7851C320.832 24.311 317.577 23.5474 313.823 23.5474C310.068 23.5474 306.814 24.311 304.008 25.7851L303.997 25.7911C301.249 27.2126 298.866 29.3596 296.857 32.2962C294.897 35.2387 293.361 38.9304 292.289 43.4213C291.22 47.9028 290.672 53.1533 290.672 59.1934V64.8442C290.672 70.827 291.219 76.0784 292.289 80.6163C293.36 85.1027 294.921 88.8216 296.935 91.8192C298.942 94.7539 301.354 96.9335 304.168 98.4116C306.973 99.8858 310.228 100.649 313.982 100.649C317.736 100.649 320.991 99.8858 323.796 98.4116C326.605 96.936 328.986 94.7621 330.937 91.8367C332.905 88.8347 334.443 85.1096 335.516 80.6163C336.586 76.0784 337.132 70.827 337.132 64.8442V59.1934C337.132 53.1533 336.585 47.9028 335.516 43.4213C334.445 38.9334 332.884 35.2455 330.875 32.3061C328.87 29.3719 326.464 27.2225 323.661 25.7974L323.649 25.7914ZM337.461 81.0806C336.347 85.7498 334.728 89.7028 332.606 92.9395C330.484 96.123 327.857 98.5373 324.727 100.182C321.596 101.827 318.014 102.649 313.982 102.649C309.949 102.649 306.368 101.827 303.237 100.182C300.107 98.5373 297.454 96.123 295.278 92.9395C293.103 89.7028 291.458 85.7498 290.344 81.0806C289.229 76.3582 288.672 70.9461 288.672 64.8442V59.1934C288.672 53.0384 289.229 47.6263 290.344 42.957C291.458 38.2878 293.076 34.3613 295.199 31.1777C297.374 27.9941 300.001 25.6064 303.078 24.0146C306.209 22.3698 309.79 21.5474 313.823 21.5474C317.855 21.5474 321.437 22.3698 324.567 24.0146C327.698 25.6064 330.351 27.9941 332.526 31.1777C334.702 34.3613 336.347 38.2878 337.461 42.957C338.575 47.6263 339.132 53.0384 339.132 59.1934V64.8442C339.132 70.9461 338.575 76.3582 337.461 81.0806ZM452.929 84.8746L472.047 4.11719H492.184L511.356 84.8759L527.044 4.11719H550.682L525.054 120H500.938L482.062 43.9489L463.292 120H439.177L413.469 4.11719H437.107L452.929 84.8746ZM437.572 122L410.977 2.11719H438.754L453.114 75.4137L470.466 2.11719H493.764L511.16 75.394L525.395 2.11719H553.173L526.66 122H499.374L482.068 52.2734L464.859 122H437.572ZM591.044 2.11719V122H563.247V2.11719H591.044ZM687.905 99.376V122H609.409V2.11719H637.286V99.376H687.905ZM635.286 101.376H685.905V120H611.409V4.11719H635.286V101.376ZM776.091 99.376V122H697.595V2.11719H725.472V99.376H776.091ZM723.472 101.376H774.091V120H699.595V4.11719H723.472V101.376ZM922.218 57.4321V106.077L921.757 106.632C919.782 109.015 916.822 111.499 912.981 114.096L912.973 114.101L912.965 114.107C908.988 116.739 903.941 118.959 897.877 120.799C891.692 122.677 884.295 123.592 875.727 123.592C868.026 123.592 860.953 122.335 854.535 119.79L854.528 119.787L854.521 119.784C848.101 117.183 842.551 113.383 837.892 108.391L837.884 108.383C833.272 103.381 829.744 97.2972 827.277 90.1713L827.275 90.1668C824.803 82.9678 823.585 74.8094 823.585 65.7197V58.4771C823.585 49.3957 824.747 41.2465 827.108 34.0559L827.112 34.0429C829.521 26.8693 832.965 20.7578 837.47 15.7524C841.966 10.7571 847.33 6.94991 853.543 4.34232C859.761 1.73332 866.634 0.445801 874.135 0.445801C884.415 0.445801 893.03 2.1202 899.871 5.59615C906.654 8.98967 911.885 13.7527 915.491 19.8896C919.103 25.8949 921.304 32.7563 922.127 40.4359L922.364 42.6489H895.253L894.999 40.943C894.445 37.2146 893.397 34.0338 891.892 31.3639C890.442 28.7911 888.365 26.7744 885.609 25.301L885.602 25.2975L885.596 25.2941C882.959 23.86 879.394 23.0698 874.772 23.0698C871.075 23.0698 867.846 23.8315 865.037 25.3076L865.026 25.3136C862.271 26.7384 859.915 28.8625 857.963 31.7429C856.004 34.6314 854.468 38.2698 853.396 42.71C852.328 47.1362 851.781 52.3317 851.781 58.3179V65.7197C851.781 71.6448 852.353 76.8356 853.472 81.3118C854.589 85.7256 856.217 89.3772 858.319 92.3148C860.463 95.1855 863.07 97.3254 866.15 98.7692C869.232 100.214 872.884 100.968 877.16 100.968C880.83 100.968 883.78 100.656 886.057 100.075L886.066 100.072C888.501 99.4636 890.343 98.7543 891.659 97.9843C892.796 97.3019 893.68 96.6789 894.341 96.12V78.4644H872.533V57.4321H922.218ZM896.341 76.4644V96.9985C895.492 97.8475 894.271 98.7495 892.68 99.7046C891.141 100.607 889.098 101.376 886.551 102.013C884.057 102.649 880.927 102.968 877.16 102.968C872.65 102.968 868.697 102.172 865.301 100.58C861.905 98.9883 859.04 96.6271 856.705 93.4966C854.424 90.313 852.699 86.4131 851.532 81.7969C850.364 77.1276 849.781 71.7686 849.781 65.7197V58.3179C849.781 52.216 850.338 46.8569 851.452 42.2407C852.566 37.6245 854.185 33.7511 856.307 30.6206C858.43 27.4901 861.029 25.1289 864.107 23.5371C867.237 21.8923 870.792 21.0698 874.772 21.0698C879.6 21.0698 883.527 21.8923 886.551 23.5371C889.629 25.182 891.99 27.4635 893.635 30.3818C895.28 33.3001 896.394 36.7225 896.978 40.6489H920.138C920.066 39.9753 919.983 39.3086 919.889 38.6489C918.946 32.0342 916.907 26.1214 913.771 20.9106C910.375 15.1271 905.441 10.617 898.967 7.38037C892.494 4.09066 884.217 2.4458 874.135 2.4458C866.866 2.4458 860.26 3.69271 854.317 6.18652C848.375 8.68034 843.254 12.3149 838.957 17.0903C834.659 21.8657 831.342 27.7288 829.008 34.6797C826.726 41.6305 825.585 49.563 825.585 58.4771V65.7197C825.585 74.6338 826.779 82.5662 829.167 89.5171C831.555 96.4149 834.951 102.251 839.354 107.027C843.812 111.802 849.117 115.437 855.272 117.931C861.427 120.371 868.246 121.592 875.727 121.592C884.164 121.592 891.353 120.69 897.296 118.886C903.239 117.082 908.094 114.933 911.861 112.439C915.628 109.892 918.414 107.531 920.218 105.355V59.4321H874.533V76.4644H896.341ZM1019.24 99.376V122H937.479V2.11719H1019.16V24.8208H965.355V49.314H1011.2V71.4604H965.355V99.376H1019.24ZM963.355 101.376H1017.24V120H939.479V4.11719H1017.16V22.8208H963.355V51.314H1009.2V69.4604H963.355V101.376ZM1025.67 4.11719V22.8208H1060.77V120H1084.57V22.8208H1120.23V4.11719H1025.67ZM1086.57 24.8208V122H1058.77V24.8208H1023.67V2.11719H1122.23V24.8208H1086.57ZM1197.52 2.11719V122H1169.72V2.11719H1197.52ZM1208.41 4.11719V22.8208H1243.51V120H1267.31V22.8208H1302.97V4.11719H1208.41ZM1269.31 24.8208V122H1241.51V24.8208H1206.41V2.11719H1304.97V24.8208H1269.31ZM589.044 4.11719H565.247V120H589.044V4.11719ZM1195.52 4.11719H1171.72V120H1195.52V4.11719Z" fill="black"/>
</svg>
