<svg width="5313" height="124" viewBox="0 0 5313 124" fill="none" xmlns="http://www.w3.org/2000/svg">
<path fill-rule="evenodd" clip-rule="evenodd" d="M42.2457 84.8746L61.3638 4.11719H81.5L100.672 84.8759L116.36 4.11719H139.999L114.371 120H90.2549L71.3787 43.9489L52.6089 120H28.4932L2.78564 4.11719H26.4238L42.2457 84.8746ZM26.8882 122L0.293335 2.11719H28.07L42.4301 75.4137L59.782 2.11719H83.0808L100.477 75.394L114.711 2.11719H142.489L115.977 122H88.6906L71.3842 52.2734L54.1753 122H26.8882ZM223.488 69.938H176.849V120H152.972V4.11719H176.849V51.314H223.488V4.11719H247.286V120H223.488V69.938ZM221.488 49.314V2.11719H249.286V122H221.488V71.938H178.849V122H150.972V2.11719H178.849V49.314H221.488ZM351.059 107.792L351.052 107.8C346.506 112.9 341.068 116.812 334.754 119.527C328.479 122.248 321.545 123.592 313.982 123.592C306.47 123.592 299.538 122.247 293.215 119.529L293.209 119.527C286.949 116.812 281.515 112.902 276.92 107.809L276.913 107.801C272.314 102.648 268.766 96.4424 266.25 89.2202L266.245 89.2074C263.775 81.9604 262.557 73.8311 262.557 64.8442V59.3525C262.557 50.3145 263.774 42.1829 266.247 34.985C268.709 27.7646 272.201 21.5588 276.746 16.4043L276.754 16.3953C281.348 11.2472 286.785 7.30703 293.05 4.59038L293.056 4.58783C299.379 1.86999 306.31 0.525391 313.823 0.525391C321.385 0.525391 328.318 1.86881 334.593 4.58937C340.911 7.30542 346.351 11.2467 350.896 16.4008C355.494 21.5536 359.013 27.7583 361.476 34.978C364.004 42.1786 365.248 50.3127 365.248 59.3525V64.8442C365.248 73.8311 364.03 81.9604 361.56 89.2074C359.097 96.4297 355.604 102.637 351.059 107.792ZM359.587 35.6348C357.199 28.6309 353.803 22.6616 349.399 17.7271C345.048 12.7925 339.849 9.02523 333.8 6.42529C327.804 3.82536 321.145 2.52539 313.823 2.52539C306.554 2.52539 299.895 3.82536 293.846 6.42529C287.85 9.02523 282.65 12.7925 278.246 17.7271C273.895 22.6616 270.526 28.6309 268.138 35.6348C265.75 42.5856 264.557 50.4915 264.557 59.3525V64.8442C264.557 73.6522 265.75 81.5581 268.138 88.562C270.579 95.5659 274.001 101.535 278.405 106.47C282.809 111.351 288.009 115.092 294.005 117.692C300.054 120.292 306.713 121.592 313.982 121.592C321.304 121.592 327.963 120.292 333.959 117.692C340.008 115.092 345.208 111.351 349.559 106.47C353.91 101.535 357.279 95.5659 359.667 88.562C362.054 81.5581 363.248 73.6522 363.248 64.8442V59.3525C363.248 50.4915 362.028 42.5856 359.587 35.6348ZM323.649 25.7914L323.637 25.7851C320.832 24.311 317.577 23.5474 313.823 23.5474C310.068 23.5474 306.814 24.311 304.008 25.7851L303.997 25.7911C301.249 27.2126 298.866 29.3596 296.857 32.2962C294.897 35.2387 293.361 38.9304 292.289 43.4213C291.22 47.9028 290.672 53.1533 290.672 59.1934V64.8442C290.672 70.827 291.219 76.0784 292.289 80.6163C293.36 85.1027 294.921 88.8216 296.935 91.8192C298.942 94.7539 301.354 96.9335 304.168 98.4116C306.973 99.8858 310.228 100.649 313.982 100.649C317.736 100.649 320.991 99.8858 323.796 98.4116C326.605 96.936 328.986 94.7621 330.937 91.8367C332.905 88.8347 334.443 85.1096 335.516 80.6163C336.586 76.0784 337.132 70.827 337.132 64.8442V59.1934C337.132 53.1533 336.585 47.9028 335.516 43.4213C334.445 38.9334 332.884 35.2455 330.875 32.3061C328.87 29.3719 326.464 27.2225 323.661 25.7974L323.649 25.7914ZM337.461 81.0806C336.347 85.7498 334.728 89.7028 332.606 92.9395C330.484 96.123 327.857 98.5373 324.727 100.182C321.596 101.827 318.014 102.649 313.982 102.649C309.949 102.649 306.368 101.827 303.237 100.182C300.107 98.5373 297.454 96.123 295.278 92.9395C293.103 89.7028 291.458 85.7498 290.344 81.0806C289.229 76.3582 288.672 70.9461 288.672 64.8442V59.1934C288.672 53.0384 289.229 47.6263 290.344 42.957C291.458 38.2878 293.076 34.3613 295.199 31.1777C297.374 27.9941 300.001 25.6064 303.078 24.0146C306.209 22.3698 309.79 21.5474 313.823 21.5474C317.855 21.5474 321.437 22.3698 324.567 24.0146C327.698 25.6064 330.351 27.9941 332.526 31.1777C334.702 34.3613 336.347 38.2878 337.461 42.957C338.575 47.6263 339.132 53.0384 339.132 59.1934V64.8442C339.132 70.9461 338.575 76.3582 337.461 81.0806ZM452.929 84.8746L472.047 4.11719H492.184L511.356 84.8759L527.044 4.11719H550.682L525.054 120H500.938L482.062 43.9489L463.292 120H439.177L413.469 4.11719H437.107L452.929 84.8746ZM437.572 122L410.977 2.11719H438.754L453.114 75.4137L470.466 2.11719H493.764L511.16 75.394L525.395 2.11719H553.173L526.66 122H499.374L482.068 52.2734L464.859 122H437.572ZM591.044 2.11719V122H563.247V2.11719H591.044ZM687.905 99.376V122H609.409V2.11719H637.286V99.376H687.905ZM635.286 101.376H685.905V120H611.409V4.11719H635.286V101.376ZM776.091 99.376V122H697.595V2.11719H725.472V99.376H776.091ZM723.472 101.376H774.091V120H699.595V4.11719H723.472V101.376ZM922.218 57.4321V106.077L921.757 106.632C919.782 109.015 916.822 111.499 912.981 114.096L912.973 114.101L912.965 114.107C908.988 116.739 903.941 118.959 897.877 120.799C891.692 122.677 884.295 123.592 875.727 123.592C868.026 123.592 860.953 122.335 854.535 119.79L854.528 119.787L854.521 119.784C848.101 117.183 842.551 113.383 837.892 108.391L837.884 108.383C833.272 103.381 829.744 97.2972 827.277 90.1713L827.275 90.1668C824.803 82.9678 823.585 74.8094 823.585 65.7197V58.4771C823.585 49.3957 824.747 41.2465 827.108 34.0559L827.112 34.0429C829.521 26.8693 832.965 20.7578 837.47 15.7524C841.966 10.7571 847.33 6.94991 853.543 4.34232C859.761 1.73332 866.634 0.445801 874.135 0.445801C884.415 0.445801 893.03 2.1202 899.871 5.59615C906.654 8.98967 911.885 13.7527 915.491 19.8896C919.103 25.8949 921.304 32.7563 922.127 40.4359L922.364 42.6489H895.253L894.999 40.943C894.445 37.2146 893.397 34.0338 891.892 31.3639C890.442 28.7911 888.365 26.7744 885.609 25.301L885.602 25.2975L885.596 25.2941C882.959 23.86 879.394 23.0698 874.772 23.0698C871.075 23.0698 867.846 23.8315 865.037 25.3076L865.026 25.3136C862.271 26.7384 859.915 28.8625 857.963 31.7429C856.004 34.6314 854.468 38.2698 853.396 42.71C852.328 47.1362 851.781 52.3317 851.781 58.3179V65.7197C851.781 71.6448 852.353 76.8356 853.472 81.3118C854.589 85.7256 856.217 89.3772 858.319 92.3148C860.463 95.1855 863.07 97.3254 866.15 98.7692C869.232 100.214 872.884 100.968 877.16 100.968C880.83 100.968 883.78 100.656 886.057 100.075L886.066 100.072C888.501 99.4636 890.343 98.7543 891.659 97.9843C892.796 97.3019 893.68 96.6789 894.341 96.12V78.4644H872.533V57.4321H922.218ZM896.341 76.4644V96.9985C895.492 97.8475 894.271 98.7495 892.68 99.7046C891.141 100.607 889.098 101.376 886.551 102.013C884.057 102.649 880.927 102.968 877.16 102.968C872.65 102.968 868.697 102.172 865.301 100.58C861.905 98.9883 859.04 96.6271 856.705 93.4966C854.424 90.313 852.699 86.4131 851.532 81.7969C850.364 77.1276 849.781 71.7686 849.781 65.7197V58.3179C849.781 52.216 850.338 46.8569 851.452 42.2407C852.566 37.6245 854.185 33.7511 856.307 30.6206C858.43 27.4901 861.029 25.1289 864.107 23.5371C867.237 21.8923 870.792 21.0698 874.772 21.0698C879.6 21.0698 883.527 21.8923 886.551 23.5371C889.629 25.182 891.99 27.4635 893.635 30.3818C895.28 33.3001 896.394 36.7225 896.978 40.6489H920.138C920.066 39.9753 919.983 39.3086 919.889 38.6489C918.946 32.0342 916.907 26.1214 913.771 20.9106C910.375 15.1271 905.441 10.617 898.967 7.38037C892.494 4.09066 884.217 2.4458 874.135 2.4458C866.866 2.4458 860.26 3.69271 854.317 6.18652C848.375 8.68034 843.254 12.3149 838.957 17.0903C834.659 21.8657 831.342 27.7288 829.008 34.6797C826.726 41.6305 825.585 49.563 825.585 58.4771V65.7197C825.585 74.6338 826.779 82.5662 829.167 89.5171C831.555 96.4149 834.951 102.251 839.354 107.027C843.812 111.802 849.117 115.437 855.272 117.931C861.427 120.371 868.246 121.592 875.727 121.592C884.164 121.592 891.353 120.69 897.296 118.886C903.239 117.082 908.094 114.933 911.861 112.439C915.628 109.892 918.414 107.531 920.218 105.355V59.4321H874.533V76.4644H896.341ZM1019.24 99.376V122H937.479V2.11719H1019.16V24.8208H965.355V49.314H1011.2V71.4604H965.355V99.376H1019.24ZM963.355 101.376H1017.24V120H939.479V4.11719H1017.16V22.8208H963.355V51.314H1009.2V69.4604H963.355V101.376ZM1025.67 4.11719V22.8208H1060.77V120H1084.57V22.8208H1120.23V4.11719H1025.67ZM1086.57 24.8208V122H1058.77V24.8208H1023.67V2.11719H1122.23V24.8208H1086.57ZM1197.52 2.11719V122H1169.72V2.11719H1197.52ZM1208.41 4.11719V22.8208H1243.51V120H1267.31V22.8208H1302.97V4.11719H1208.41ZM1269.31 24.8208V122H1241.51V24.8208H1206.41V2.11719H1304.97V24.8208H1269.31ZM589.044 4.11719H565.247V120H589.044V4.11719ZM1195.52 4.11719H1171.72V120H1195.52V4.11719Z" fill="black"/>
<path fill-rule="evenodd" clip-rule="evenodd" d="M1377.95 84.8746L1397.07 4.11719H1417.21L1436.38 84.8759L1452.07 4.11719H1475.71L1450.08 120H1425.96L1407.09 43.9489L1388.32 120H1364.2L1338.49 4.11719H1362.13L1377.95 84.8746ZM1362.59 122L1336 2.11719H1363.78L1378.14 75.4137L1395.49 2.11719H1418.79L1436.18 75.394L1450.42 2.11719H1478.2L1451.68 122H1424.4L1407.09 52.2734L1389.88 122H1362.59ZM1559.19 69.938H1512.56V120H1488.68V4.11719H1512.56V51.314H1559.19V4.11719H1582.99V120H1559.19V69.938ZM1557.19 49.314V2.11719H1584.99V122H1557.19V71.938H1514.56V122H1486.68V2.11719H1514.56V49.314H1557.19ZM1686.77 107.792L1686.76 107.8C1682.21 112.9 1676.77 116.812 1670.46 119.527C1664.19 122.248 1657.25 123.592 1649.69 123.592C1642.18 123.592 1635.24 122.247 1628.92 119.529L1628.92 119.527C1622.66 116.812 1617.22 112.902 1612.63 107.809L1612.62 107.801C1608.02 102.648 1604.47 96.4424 1601.96 89.2202L1601.95 89.2074C1599.48 81.9604 1598.26 73.8311 1598.26 64.8442V59.3525C1598.26 50.3145 1599.48 42.1829 1601.95 34.985C1604.42 27.7646 1607.91 21.5588 1612.45 16.4043L1612.46 16.3953C1617.06 11.2472 1622.49 7.30703 1628.76 4.59038L1628.76 4.58783C1635.09 1.86999 1642.02 0.525391 1649.53 0.525391C1657.09 0.525391 1664.02 1.86881 1670.3 4.58937C1676.62 7.30542 1682.06 11.2467 1686.6 16.4008C1691.2 21.5536 1694.72 27.7583 1697.18 34.978C1699.71 42.1786 1700.95 50.3127 1700.95 59.3525V64.8442C1700.95 73.8311 1699.74 81.9604 1697.27 89.2074C1694.8 96.4297 1691.31 102.637 1686.77 107.792ZM1695.29 35.6348C1692.91 28.6309 1689.51 22.6616 1685.11 17.7271C1680.76 12.7925 1675.56 9.02523 1669.51 6.42529C1663.51 3.82536 1656.85 2.52539 1649.53 2.52539C1642.26 2.52539 1635.6 3.82536 1629.55 6.42529C1623.56 9.02523 1618.36 12.7925 1613.95 17.7271C1609.6 22.6616 1606.23 28.6309 1603.84 35.6348C1601.46 42.5856 1600.26 50.4915 1600.26 59.3525V64.8442C1600.26 73.6522 1601.46 81.5581 1603.84 88.562C1606.29 95.5659 1609.71 101.535 1614.11 106.47C1618.52 111.351 1623.72 115.092 1629.71 117.692C1635.76 120.292 1642.42 121.592 1649.69 121.592C1657.01 121.592 1663.67 120.292 1669.67 117.692C1675.71 115.092 1680.91 111.351 1685.27 106.47C1689.62 101.535 1692.99 95.5659 1695.37 88.562C1697.76 81.5581 1698.95 73.6522 1698.95 64.8442V59.3525C1698.95 50.4915 1697.73 42.5856 1695.29 35.6348ZM1659.36 25.7914L1659.34 25.7851C1656.54 24.311 1653.28 23.5474 1649.53 23.5474C1645.78 23.5474 1642.52 24.311 1639.72 25.7851L1639.7 25.7911C1636.96 27.2126 1634.57 29.3596 1632.56 32.2962C1630.6 35.2387 1629.07 38.9304 1628 43.4213C1626.93 47.9028 1626.38 53.1533 1626.38 59.1934V64.8442C1626.38 70.827 1626.93 76.0784 1628 80.6163C1629.07 85.1027 1630.63 88.8216 1632.64 91.8192C1634.65 94.7539 1637.06 96.9335 1639.87 98.4116C1642.68 99.8858 1645.93 100.649 1649.69 100.649C1653.44 100.649 1656.7 99.8858 1659.5 98.4116C1662.31 96.936 1664.69 94.7621 1666.64 91.8367C1668.61 88.8347 1670.15 85.1096 1671.22 80.6163C1672.29 76.0784 1672.84 70.827 1672.84 64.8442V59.1934C1672.84 53.1533 1672.29 47.9028 1671.22 43.4213C1670.15 38.9334 1668.59 35.2455 1666.58 32.3061C1664.58 29.3719 1662.17 27.2225 1659.37 25.7974L1659.36 25.7914ZM1673.17 81.0806C1672.05 85.7498 1670.44 89.7028 1668.31 92.9395C1666.19 96.123 1663.56 98.5373 1660.43 100.182C1657.3 101.827 1653.72 102.649 1649.69 102.649C1645.66 102.649 1642.07 101.827 1638.94 100.182C1635.81 98.5373 1633.16 96.123 1630.98 92.9395C1628.81 89.7028 1627.16 85.7498 1626.05 81.0806C1624.94 76.3582 1624.38 70.9461 1624.38 64.8442V59.1934C1624.38 53.0384 1624.94 47.6263 1626.05 42.957C1627.16 38.2878 1628.78 34.3613 1630.91 31.1777C1633.08 27.9941 1635.71 25.6064 1638.78 24.0146C1641.92 22.3698 1645.5 21.5474 1649.53 21.5474C1653.56 21.5474 1657.14 22.3698 1660.27 24.0146C1663.4 25.6064 1666.06 27.9941 1668.23 31.1777C1670.41 34.3613 1672.05 38.2878 1673.17 42.957C1674.28 47.6263 1674.84 53.0384 1674.84 59.1934V64.8442C1674.84 70.9461 1674.28 76.3582 1673.17 81.0806ZM1788.64 84.8746L1807.75 4.11719H1827.89L1847.06 84.8759L1862.75 4.11719H1886.39L1860.76 120H1836.65L1817.77 43.9489L1799 120H1774.88L1749.18 4.11719H1772.81L1788.64 84.8746ZM1773.28 122L1746.68 2.11719H1774.46L1788.82 75.4137L1806.17 2.11719H1829.47L1846.87 75.394L1861.1 2.11719H1888.88L1862.37 122H1835.08L1817.77 52.2734L1800.57 122H1773.28ZM1926.75 2.11719V122H1898.95V2.11719H1926.75ZM2023.61 99.376V122H1945.12V2.11719H1972.99V99.376H2023.61ZM1970.99 101.376H2021.61V120H1947.12V4.11719H1970.99V101.376ZM2111.8 99.376V122H2033.3V2.11719H2061.18V99.376H2111.8ZM2059.18 101.376H2109.8V120H2035.3V4.11719H2059.18V101.376ZM2257.92 57.4321V106.077L2257.46 106.632C2255.49 109.015 2252.53 111.499 2248.69 114.096L2248.68 114.101L2248.67 114.107C2244.7 116.739 2239.65 118.959 2233.58 120.799C2227.4 122.677 2220 123.592 2211.43 123.592C2203.73 123.592 2196.66 122.335 2190.24 119.79L2190.23 119.787L2190.23 119.784C2183.81 117.183 2178.26 113.383 2173.6 108.391L2173.59 108.383C2168.98 103.381 2165.45 97.2972 2162.98 90.1713L2162.98 90.1668C2160.51 82.9678 2159.29 74.8094 2159.29 65.7197V58.4771C2159.29 49.3957 2160.45 41.2465 2162.81 34.0559L2162.82 34.0429C2165.23 26.8693 2168.67 20.7578 2173.18 15.7524C2177.67 10.7571 2183.04 6.94991 2189.25 4.34232C2195.47 1.73332 2202.34 0.445801 2209.84 0.445801C2220.12 0.445801 2228.74 2.1202 2235.58 5.59615C2242.36 8.98967 2247.59 13.7527 2251.2 19.8896C2254.81 25.8949 2257.01 32.7563 2257.83 40.4359L2258.07 42.6489H2230.96L2230.71 40.943C2230.15 37.2146 2229.1 34.0338 2227.6 31.3639C2226.15 28.7911 2224.07 26.7744 2221.32 25.301L2221.31 25.2975L2221.3 25.2941C2218.67 23.86 2215.1 23.0698 2210.48 23.0698C2206.78 23.0698 2203.55 23.8315 2200.74 25.3076L2200.73 25.3136C2197.98 26.7384 2195.62 28.8625 2193.67 31.7429C2191.71 34.6314 2190.17 38.2698 2189.1 42.71C2188.03 47.1362 2187.49 52.3317 2187.49 58.3179V65.7197C2187.49 71.6448 2188.06 76.8356 2189.18 81.3118C2190.3 85.7256 2191.92 89.3772 2194.03 92.3148C2196.17 95.1855 2198.78 97.3254 2201.86 98.7692C2204.94 100.214 2208.59 100.968 2212.87 100.968C2216.54 100.968 2219.49 100.656 2221.76 100.075L2221.77 100.072C2224.21 99.4636 2226.05 98.7543 2227.37 97.9843C2228.5 97.3019 2229.39 96.6789 2230.05 96.12V78.4644H2208.24V57.4321H2257.92ZM2232.05 76.4644V96.9985C2231.2 97.8475 2229.98 98.7495 2228.39 99.7046C2226.85 100.607 2224.8 101.376 2222.26 102.013C2219.76 102.649 2216.63 102.968 2212.87 102.968C2208.36 102.968 2204.4 102.172 2201.01 100.58C2197.61 98.9883 2194.75 96.6271 2192.41 93.4966C2190.13 90.313 2188.41 86.4131 2187.24 81.7969C2186.07 77.1276 2185.49 71.7686 2185.49 65.7197V58.3179C2185.49 52.216 2186.04 46.8569 2187.16 42.2407C2188.27 37.6245 2189.89 33.7511 2192.01 30.6206C2194.14 27.4901 2196.74 25.1289 2199.81 23.5371C2202.94 21.8923 2206.5 21.0698 2210.48 21.0698C2215.31 21.0698 2219.23 21.8923 2222.26 23.5371C2225.34 25.182 2227.7 27.4635 2229.34 30.3818C2230.99 33.3001 2232.1 36.7225 2232.68 40.6489H2255.84C2255.77 39.9753 2255.69 39.3086 2255.6 38.6489C2254.65 32.0342 2252.61 26.1214 2249.48 20.9106C2246.08 15.1271 2241.15 10.617 2234.67 7.38037C2228.2 4.09066 2219.92 2.4458 2209.84 2.4458C2202.57 2.4458 2195.97 3.69271 2190.02 6.18652C2184.08 8.68034 2178.96 12.3149 2174.66 17.0903C2170.37 21.8657 2167.05 27.7288 2164.71 34.6797C2162.43 41.6305 2161.29 49.563 2161.29 58.4771V65.7197C2161.29 74.6338 2162.49 82.5662 2164.87 89.5171C2167.26 96.4149 2170.66 102.251 2175.06 107.027C2179.52 111.802 2184.82 115.437 2190.98 117.931C2197.13 120.371 2203.95 121.592 2211.43 121.592C2219.87 121.592 2227.06 120.69 2233 118.886C2238.95 117.082 2243.8 114.933 2247.57 112.439C2251.33 109.892 2254.12 107.531 2255.92 105.355V59.4321H2210.24V76.4644H2232.05ZM2354.94 99.376V122H2273.19V2.11719H2354.86V24.8208H2301.06V49.314H2346.91V71.4604H2301.06V99.376H2354.94ZM2299.06 101.376H2352.94V120H2275.19V4.11719H2352.86V22.8208H2299.06V51.314H2344.91V69.4604H2299.06V101.376ZM2361.38 4.11719V22.8208H2396.48V120H2420.28V22.8208H2455.93V4.11719H2361.38ZM2422.28 24.8208V122H2394.48V24.8208H2359.38V2.11719H2457.93V24.8208H2422.28ZM2533.23 2.11719V122H2505.43V2.11719H2533.23ZM2544.12 4.11719V22.8208H2579.22V120H2603.02V22.8208H2638.67V4.11719H2544.12ZM2605.02 24.8208V122H2577.22V24.8208H2542.12V2.11719H2640.67V24.8208H2605.02ZM1924.75 4.11719H1900.95V120H1924.75V4.11719ZM2531.23 4.11719H2507.43V120H2531.23V4.11719Z" fill="black"/>
<path fill-rule="evenodd" clip-rule="evenodd" d="M2713.66 84.8746L2732.78 4.11719H2752.91L2772.09 84.8759L2787.77 4.11719H2811.41L2785.78 120H2761.67L2742.79 43.9489L2724.02 120H2699.91L2674.2 4.11719H2697.84L2713.66 84.8746ZM2698.3 122L2671.71 2.11719H2699.48L2713.84 75.4137L2731.2 2.11719H2754.49L2771.89 75.394L2786.12 2.11719H2813.9L2787.39 122H2760.1L2742.8 52.2734L2725.59 122H2698.3ZM2894.9 69.938H2848.26V120H2824.38V4.11719H2848.26V51.314H2894.9V4.11719H2918.7V120H2894.9V69.938ZM2892.9 49.314V2.11719H2920.7V122H2892.9V71.938H2850.26V122H2822.38V2.11719H2850.26V49.314H2892.9ZM3022.47 107.792L3022.46 107.8C3017.92 112.9 3012.48 116.812 3006.17 119.527C2999.89 122.248 2992.96 123.592 2985.4 123.592C2977.88 123.592 2970.95 122.247 2964.63 119.529L2964.62 119.527C2958.36 116.812 2952.93 112.902 2948.33 107.809L2948.33 107.801C2943.73 102.648 2940.18 96.4424 2937.66 89.2202L2937.66 89.2074C2935.19 81.9604 2933.97 73.8311 2933.97 64.8442V59.3525C2933.97 50.3145 2935.19 42.1829 2937.66 34.985C2940.12 27.7646 2943.61 21.5588 2948.16 16.4043L2948.17 16.3953C2952.76 11.2472 2958.2 7.30703 2964.46 4.59038L2964.47 4.58783C2970.79 1.86999 2977.72 0.525391 2985.24 0.525391C2992.8 0.525391 2999.73 1.86881 3006.01 4.58937C3012.32 7.30542 3017.76 11.2467 3022.31 16.4008C3026.91 21.5536 3030.43 27.7583 3032.89 34.978C3035.42 42.1786 3036.66 50.3127 3036.66 59.3525V64.8442C3036.66 73.8311 3035.44 81.9604 3032.97 89.2074C3030.51 96.4297 3027.02 102.637 3022.47 107.792ZM3031 35.6348C3028.61 28.6309 3025.22 22.6616 3020.81 17.7271C3016.46 12.7925 3011.26 9.02523 3005.21 6.42529C2999.22 3.82536 2992.56 2.52539 2985.24 2.52539C2977.97 2.52539 2971.31 3.82536 2965.26 6.42529C2959.26 9.02523 2954.06 12.7925 2949.66 17.7271C2945.31 22.6616 2941.94 28.6309 2939.55 35.6348C2937.16 42.5856 2935.97 50.4915 2935.97 59.3525V64.8442C2935.97 73.6522 2937.16 81.5581 2939.55 88.562C2941.99 95.5659 2945.41 101.535 2949.82 106.47C2954.22 111.351 2959.42 115.092 2965.42 117.692C2971.47 120.292 2978.13 121.592 2985.4 121.592C2992.72 121.592 2999.38 120.292 3005.37 117.692C3011.42 115.092 3016.62 111.351 3020.97 106.47C3025.32 101.535 3028.69 95.5659 3031.08 88.562C3033.47 81.5581 3034.66 73.6522 3034.66 64.8442V59.3525C3034.66 50.4915 3033.44 42.5856 3031 35.6348ZM2995.06 25.7914L2995.05 25.7851C2992.24 24.311 2988.99 23.5474 2985.24 23.5474C2981.48 23.5474 2978.23 24.311 2975.42 25.7851L2975.41 25.7911C2972.66 27.2126 2970.28 29.3596 2968.27 32.2962C2966.31 35.2387 2964.77 38.9304 2963.7 43.4213C2962.63 47.9028 2962.09 53.1533 2962.09 59.1934V64.8442C2962.09 70.827 2962.63 76.0784 2963.7 80.6163C2964.77 85.1027 2966.33 88.8216 2968.35 91.8192C2970.36 94.7539 2972.77 96.9335 2975.58 98.4116C2978.39 99.8858 2981.64 100.649 2985.4 100.649C2989.15 100.649 2992.4 99.8858 2995.21 98.4116C2998.02 96.936 3000.4 94.7621 3002.35 91.8367C3004.32 88.8347 3005.86 85.1096 3006.93 80.6163C3008 76.0784 3008.55 70.827 3008.55 64.8442V59.1934C3008.55 53.1533 3008 47.9028 3006.93 43.4213C3005.86 38.9334 3004.3 35.2455 3002.29 32.3061C3000.28 29.3719 2997.88 27.2225 2995.07 25.7974L2995.06 25.7914ZM3008.87 81.0806C3007.76 85.7498 3006.14 89.7028 3004.02 92.9395C3001.9 96.123 2999.27 98.5373 2996.14 100.182C2993.01 101.827 2989.43 102.649 2985.4 102.649C2981.36 102.649 2977.78 101.827 2974.65 100.182C2971.52 98.5373 2968.87 96.123 2966.69 92.9395C2964.52 89.7028 2962.87 85.7498 2961.76 81.0806C2960.64 76.3582 2960.09 70.9461 2960.09 64.8442V59.1934C2960.09 53.0384 2960.64 47.6263 2961.76 42.957C2962.87 38.2878 2964.49 34.3613 2966.61 31.1777C2968.79 27.9941 2971.41 25.6064 2974.49 24.0146C2977.62 22.3698 2981.2 21.5474 2985.24 21.5474C2989.27 21.5474 2992.85 22.3698 2995.98 24.0146C2999.11 25.6064 3001.76 27.9941 3003.94 31.1777C3006.12 34.3613 3007.76 38.2878 3008.87 42.957C3009.99 47.6263 3010.55 53.0384 3010.55 59.1934V64.8442C3010.55 70.9461 3009.99 76.3582 3008.87 81.0806ZM3124.34 84.8746L3143.46 4.11719H3163.6L3182.77 84.8759L3198.46 4.11719H3222.1L3196.47 120H3172.35L3153.48 43.9489L3134.71 120H3110.59L3084.88 4.11719H3108.52L3124.34 84.8746ZM3108.99 122L3082.39 2.11719H3110.17L3124.53 75.4137L3141.88 2.11719H3165.18L3182.57 75.394L3196.81 2.11719H3224.59L3198.07 122H3170.79L3153.48 52.2734L3136.27 122H3108.99ZM3262.46 2.11719V122H3234.66V2.11719H3262.46ZM3359.32 99.376V122H3280.82V2.11719H3308.7V99.376H3359.32ZM3306.7 101.376H3357.32V120H3282.82V4.11719H3306.7V101.376ZM3447.5 99.376V122H3369.01V2.11719H3396.88V99.376H3447.5ZM3394.88 101.376H3445.5V120H3371.01V4.11719H3394.88V101.376ZM3593.63 57.4321V106.077L3593.17 106.632C3591.19 109.015 3588.24 111.499 3584.39 114.096L3584.39 114.101L3584.38 114.107C3580.4 116.739 3575.35 118.959 3569.29 120.799C3563.11 122.677 3555.71 123.592 3547.14 123.592C3539.44 123.592 3532.37 122.335 3525.95 119.79L3525.94 119.787L3525.93 119.784C3519.51 117.183 3513.96 113.383 3509.31 108.391L3509.3 108.383C3504.68 103.381 3501.16 97.2972 3498.69 90.1713L3498.69 90.1668C3496.22 82.9678 3495 74.8094 3495 65.7197V58.4771C3495 49.3957 3496.16 41.2465 3498.52 34.0559L3498.53 34.0429C3500.93 26.8693 3504.38 20.7578 3508.88 15.7524C3513.38 10.7571 3518.74 6.94991 3524.96 4.34232C3531.17 1.73332 3538.05 0.445801 3545.55 0.445801C3555.83 0.445801 3564.44 2.1202 3571.28 5.59615C3578.07 8.98967 3583.3 13.7527 3586.9 19.8896C3590.52 25.8949 3592.72 32.7563 3593.54 40.4359L3593.78 42.6489H3566.67L3566.41 40.943C3565.86 37.2146 3564.81 34.0338 3563.31 31.3639C3561.86 28.7911 3559.78 26.7744 3557.02 25.301L3557.02 25.2975L3557.01 25.2941C3554.37 23.86 3550.81 23.0698 3546.19 23.0698C3542.49 23.0698 3539.26 23.8315 3536.45 25.3076L3536.44 25.3136C3533.68 26.7384 3531.33 28.8625 3529.38 31.7429C3527.42 34.6314 3525.88 38.2698 3524.81 42.71C3523.74 47.1362 3523.19 52.3317 3523.19 58.3179V65.7197C3523.19 71.6448 3523.77 76.8356 3524.89 81.3118C3526 85.7256 3527.63 89.3772 3529.73 92.3148C3531.88 95.1855 3534.48 97.3254 3537.56 98.7692C3540.64 100.214 3544.3 100.968 3548.57 100.968C3552.24 100.968 3555.19 100.656 3557.47 100.075L3557.48 100.072C3559.91 99.4636 3561.76 98.7543 3563.07 97.9843C3564.21 97.3019 3565.09 96.6789 3565.75 96.12V78.4644H3543.95V57.4321H3593.63ZM3567.75 76.4644V96.9985C3566.91 97.8475 3565.68 98.7495 3564.09 99.7046C3562.55 100.607 3560.51 101.376 3557.96 102.013C3555.47 102.649 3552.34 102.968 3548.57 102.968C3544.06 102.968 3540.11 102.172 3536.71 100.58C3533.32 98.9883 3530.45 96.6271 3528.12 93.4966C3525.84 90.313 3524.11 86.4131 3522.94 81.7969C3521.78 77.1276 3521.19 71.7686 3521.19 65.7197V58.3179C3521.19 52.216 3521.75 46.8569 3522.87 42.2407C3523.98 37.6245 3525.6 33.7511 3527.72 30.6206C3529.84 27.4901 3532.44 25.1289 3535.52 23.5371C3538.65 21.8923 3542.21 21.0698 3546.19 21.0698C3551.01 21.0698 3554.94 21.8923 3557.96 23.5371C3561.04 25.182 3563.4 27.4635 3565.05 30.3818C3566.69 33.3001 3567.81 36.7225 3568.39 40.6489H3591.55C3591.48 39.9753 3591.4 39.3086 3591.3 38.6489C3590.36 32.0342 3588.32 26.1214 3585.18 20.9106C3581.79 15.1271 3576.85 10.617 3570.38 7.38037C3563.91 4.09066 3555.63 2.4458 3545.55 2.4458C3538.28 2.4458 3531.67 3.69271 3525.73 6.18652C3519.79 8.68034 3514.67 12.3149 3510.37 17.0903C3506.07 21.8657 3502.76 27.7288 3500.42 34.6797C3498.14 41.6305 3497 49.563 3497 58.4771V65.7197C3497 74.6338 3498.19 82.5662 3500.58 89.5171C3502.97 96.4149 3506.36 102.251 3510.77 107.027C3515.22 111.802 3520.53 115.437 3526.69 117.931C3532.84 120.371 3539.66 121.592 3547.14 121.592C3555.58 121.592 3562.77 120.69 3568.71 118.886C3574.65 117.082 3579.51 114.933 3583.27 112.439C3587.04 109.892 3589.83 107.531 3591.63 105.355V59.4321H3545.95V76.4644H3567.75ZM3690.65 99.376V122H3608.89V2.11719H3690.57V24.8208H3636.77V49.314H3682.61V71.4604H3636.77V99.376H3690.65ZM3634.77 101.376H3688.65V120H3610.89V4.11719H3688.57V22.8208H3634.77V51.314H3680.61V69.4604H3634.77V101.376ZM3697.09 4.11719V22.8208H3732.19V120H3755.98V22.8208H3791.64V4.11719H3697.09ZM3757.98 24.8208V122H3730.19V24.8208H3695.09V2.11719H3793.64V24.8208H3757.98ZM3868.93 2.11719V122H3841.13V2.11719H3868.93ZM3879.83 4.11719V22.8208H3914.92V120H3938.72V22.8208H3974.38V4.11719H3879.83ZM3940.72 24.8208V122H3912.92V24.8208H3877.83V2.11719H3976.38V24.8208H3940.72ZM3260.46 4.11719H3236.66V120H3260.46V4.11719ZM3866.93 4.11719H3843.13V120H3866.93V4.11719Z" fill="black"/>
<path fill-rule="evenodd" clip-rule="evenodd" d="M4049.37 84.8746L4068.48 4.11719H4088.62L4107.79 84.8759L4123.48 4.11719H4147.12L4121.49 120H4097.37L4078.5 43.9489L4059.73 120H4035.61L4009.91 4.11719H4033.54L4049.37 84.8746ZM4034.01 122L4007.41 2.11719H4035.19L4049.55 75.4137L4066.9 2.11719H4090.2L4107.6 75.394L4121.83 2.11719H4149.61L4123.1 122H4095.81L4078.5 52.2734L4061.3 122H4034.01ZM4230.61 69.938H4183.97V120H4160.09V4.11719H4183.97V51.314H4230.61V4.11719H4254.41V120H4230.61V69.938ZM4228.61 49.314V2.11719H4256.41V122H4228.61V71.938H4185.97V122H4158.09V2.11719H4185.97V49.314H4228.61ZM4358.18 107.792L4358.17 107.8C4353.63 112.9 4348.19 116.812 4341.87 119.527C4335.6 122.248 4328.66 123.592 4321.1 123.592C4313.59 123.592 4306.66 122.247 4300.33 119.529L4300.33 119.527C4294.07 116.812 4288.63 112.902 4284.04 107.809L4284.03 107.801C4279.43 102.648 4275.89 96.4424 4273.37 89.2202L4273.36 89.2074C4270.89 81.9604 4269.68 73.8311 4269.68 64.8442V59.3525C4269.68 50.3145 4270.89 42.1829 4273.37 34.985C4275.83 27.7646 4279.32 21.5588 4283.87 16.4043L4283.87 16.3953C4288.47 11.2472 4293.9 7.30703 4300.17 4.59038L4300.18 4.58783C4306.5 1.86999 4313.43 0.525391 4320.94 0.525391C4328.5 0.525391 4335.44 1.86881 4341.71 4.58937C4348.03 7.30542 4353.47 11.2467 4358.02 16.4008C4362.61 21.5536 4366.13 27.7583 4368.6 34.978C4371.12 42.1786 4372.37 50.3127 4372.37 59.3525V64.8442C4372.37 73.8311 4371.15 81.9604 4368.68 89.2074C4366.22 96.4297 4362.72 102.637 4358.18 107.792ZM4366.71 35.6348C4364.32 28.6309 4360.92 22.6616 4356.52 17.7271C4352.17 12.7925 4346.97 9.02523 4340.92 6.42529C4334.92 3.82536 4328.26 2.52539 4320.94 2.52539C4313.67 2.52539 4307.01 3.82536 4300.97 6.42529C4294.97 9.02523 4289.77 12.7925 4285.37 17.7271C4281.01 22.6616 4277.65 28.6309 4275.26 35.6348C4272.87 42.5856 4271.68 50.4915 4271.68 59.3525V64.8442C4271.68 73.6522 4272.87 81.5581 4275.26 88.562C4277.7 95.5659 4281.12 101.535 4285.53 106.47C4289.93 111.351 4295.13 115.092 4301.12 117.692C4307.17 120.292 4313.83 121.592 4321.1 121.592C4328.42 121.592 4335.08 120.292 4341.08 117.692C4347.13 115.092 4352.33 111.351 4356.68 106.47C4361.03 101.535 4364.4 95.5659 4366.79 88.562C4369.17 81.5581 4370.37 73.6522 4370.37 64.8442V59.3525C4370.37 50.4915 4369.15 42.5856 4366.71 35.6348ZM4330.77 25.7914L4330.76 25.7851C4327.95 24.311 4324.7 23.5474 4320.94 23.5474C4317.19 23.5474 4313.93 24.311 4311.13 25.7851L4311.12 25.7911C4308.37 27.2126 4305.99 29.3596 4303.98 32.2962C4302.02 35.2387 4300.48 38.9304 4299.41 43.4213C4298.34 47.9028 4297.79 53.1533 4297.79 59.1934V64.8442C4297.79 70.827 4298.34 76.0784 4299.41 80.6163C4300.48 85.1027 4302.04 88.8216 4304.05 91.8192C4306.06 94.7539 4308.47 96.9335 4311.29 98.4116C4314.09 99.8858 4317.35 100.649 4321.1 100.649C4324.86 100.649 4328.11 99.8858 4330.92 98.4116C4333.72 96.936 4336.11 94.7621 4338.06 91.8367C4340.02 88.8347 4341.56 85.1096 4342.64 80.6163C4343.71 76.0784 4344.25 70.827 4344.25 64.8442V59.1934C4344.25 53.1533 4343.7 47.9028 4342.64 43.4213C4341.56 38.9334 4340 35.2455 4337.99 32.3061C4335.99 29.3719 4333.58 27.2225 4330.78 25.7974L4330.77 25.7914ZM4344.58 81.0806C4343.47 85.7498 4341.85 89.7028 4339.73 92.9395C4337.6 96.123 4334.98 98.5373 4331.85 100.182C4328.72 101.827 4325.13 102.649 4321.1 102.649C4317.07 102.649 4313.49 101.827 4310.36 100.182C4307.23 98.5373 4304.57 96.123 4302.4 92.9395C4300.22 89.7028 4298.58 85.7498 4297.46 81.0806C4296.35 76.3582 4295.79 70.9461 4295.79 64.8442V59.1934C4295.79 53.0384 4296.35 47.6263 4297.46 42.957C4298.58 38.2878 4300.2 34.3613 4302.32 31.1777C4304.49 27.9941 4307.12 25.6064 4310.2 24.0146C4313.33 22.3698 4316.91 21.5474 4320.94 21.5474C4324.98 21.5474 4328.56 22.3698 4331.69 24.0146C4334.82 25.6064 4337.47 27.9941 4339.65 31.1777C4341.82 34.3613 4343.47 38.2878 4344.58 42.957C4345.69 47.6263 4346.25 53.0384 4346.25 59.1934V64.8442C4346.25 70.9461 4345.69 76.3582 4344.58 81.0806ZM4460.05 84.8746L4479.17 4.11719H4499.3L4518.48 84.8759L4534.16 4.11719H4557.8L4532.17 120H4508.06L4489.18 43.9489L4470.41 120H4446.3L4420.59 4.11719H4444.23L4460.05 84.8746ZM4444.69 122L4418.1 2.11719H4445.87L4460.23 75.4137L4477.59 2.11719H4500.88L4518.28 75.394L4532.51 2.11719H4560.29L4533.78 122H4506.49L4489.19 52.2734L4471.98 122H4444.69ZM4598.16 2.11719V122H4570.37V2.11719H4598.16ZM4695.03 99.376V122H4616.53V2.11719H4644.41V99.376H4695.03ZM4642.41 101.376H4693.03V120H4618.53V4.11719H4642.41V101.376ZM4783.21 99.376V122H4704.71V2.11719H4732.59V99.376H4783.21ZM4730.59 101.376H4781.21V120H4706.71V4.11719H4730.59V101.376ZM4929.34 57.4321V106.077L4928.88 106.632C4926.9 109.015 4923.94 111.499 4920.1 114.096L4920.09 114.101L4920.08 114.107C4916.11 116.739 4911.06 118.959 4905 120.799C4898.81 122.677 4891.41 123.592 4882.85 123.592C4875.15 123.592 4868.07 122.335 4861.65 119.79L4861.65 119.787L4861.64 119.784C4855.22 117.183 4849.67 113.383 4845.01 108.391L4845 108.383C4840.39 103.381 4836.86 97.2972 4834.4 90.1713L4834.4 90.1668C4831.92 82.9678 4830.71 74.8094 4830.71 65.7197V58.4771C4830.71 49.3957 4831.87 41.2465 4834.23 34.0559L4834.23 34.0429C4836.64 26.8693 4840.08 20.7578 4844.59 15.7524C4849.09 10.7571 4854.45 6.94991 4860.66 4.34232C4866.88 1.73332 4873.75 0.445801 4881.26 0.445801C4891.53 0.445801 4900.15 2.1202 4906.99 5.59615C4913.77 8.98967 4919.01 13.7527 4922.61 19.8896C4926.22 25.8949 4928.42 32.7563 4929.25 40.4359L4929.48 42.6489H4902.37L4902.12 40.943C4901.56 37.2146 4900.52 34.0338 4899.01 31.3639C4897.56 28.7911 4895.48 26.7744 4892.73 25.301L4892.72 25.2975L4892.72 25.2941C4890.08 23.86 4886.51 23.0698 4881.89 23.0698C4878.2 23.0698 4874.97 23.8315 4872.16 25.3076L4872.15 25.3136C4869.39 26.7384 4867.04 28.8625 4865.08 31.7429C4863.12 34.6314 4861.59 38.2698 4860.52 42.71C4859.45 47.1362 4858.9 52.3317 4858.9 58.3179V65.7197C4858.9 71.6448 4859.47 76.8356 4860.59 81.3118C4861.71 85.7256 4863.34 89.3772 4865.44 92.3148C4867.58 95.1855 4870.19 97.3254 4873.27 98.7692C4876.35 100.214 4880 100.968 4884.28 100.968C4887.95 100.968 4890.9 100.656 4893.18 100.075L4893.19 100.072C4895.62 99.4636 4897.46 98.7543 4898.78 97.9843C4899.92 97.3019 4900.8 96.6789 4901.46 96.12V78.4644H4879.65V57.4321H4929.34ZM4903.46 76.4644V96.9985C4902.61 97.8475 4901.39 98.7495 4899.8 99.7046C4898.26 100.607 4896.22 101.376 4893.67 102.013C4891.18 102.649 4888.05 102.968 4884.28 102.968C4879.77 102.968 4875.82 102.172 4872.42 100.58C4869.02 98.9883 4866.16 96.6271 4863.82 93.4966C4861.54 90.313 4859.82 86.4131 4858.65 81.7969C4857.48 77.1276 4856.9 71.7686 4856.9 65.7197V58.3179C4856.9 52.216 4857.46 46.8569 4858.57 42.2407C4859.69 37.6245 4861.3 33.7511 4863.43 30.6206C4865.55 27.4901 4868.15 25.1289 4871.23 23.5371C4874.36 21.8923 4877.91 21.0698 4881.89 21.0698C4886.72 21.0698 4890.65 21.8923 4893.67 23.5371C4896.75 25.182 4899.11 27.4635 4900.75 30.3818C4902.4 33.3001 4903.51 36.7225 4904.1 40.6489H4927.26C4927.19 39.9753 4927.1 39.3086 4927.01 38.6489C4926.07 32.0342 4924.03 26.1214 4920.89 20.9106C4917.49 15.1271 4912.56 10.617 4906.09 7.38037C4899.61 4.09066 4891.34 2.4458 4881.26 2.4458C4873.99 2.4458 4867.38 3.69271 4861.44 6.18652C4855.49 8.68034 4850.37 12.3149 4846.08 17.0903C4841.78 21.8657 4838.46 27.7288 4836.13 34.6797C4833.85 41.6305 4832.71 49.563 4832.71 58.4771V65.7197C4832.71 74.6338 4833.9 82.5662 4836.29 89.5171C4838.67 96.4149 4842.07 102.251 4846.47 107.027C4850.93 111.802 4856.24 115.437 4862.39 117.931C4868.55 120.371 4875.37 121.592 4882.85 121.592C4891.28 121.592 4898.47 120.69 4904.42 118.886C4910.36 117.082 4915.21 114.933 4918.98 112.439C4922.75 109.892 4925.53 107.531 4927.34 105.355V59.4321H4881.65V76.4644H4903.46ZM5026.36 99.376V122H4944.6V2.11719H5026.28V24.8208H4972.48V49.314H5018.32V71.4604H4972.48V99.376H5026.36ZM4970.48 101.376H5024.36V120H4946.6V4.11719H5024.28V22.8208H4970.48V51.314H5016.32V69.4604H4970.48V101.376ZM5032.79 4.11719V22.8208H5067.89V120H5091.69V22.8208H5127.35V4.11719H5032.79ZM5093.69 24.8208V122H5065.89V24.8208H5030.79V2.11719H5129.35V24.8208H5093.69ZM5204.64 2.11719V122H5176.84V2.11719H5204.64ZM5215.53 4.11719V22.8208H5250.63V120H5274.43V22.8208H5310.09V4.11719H5215.53ZM5276.43 24.8208V122H5248.63V24.8208H5213.53V2.11719H5312.09V24.8208H5276.43ZM4596.16 4.11719H4572.37V120H4596.16V4.11719ZM5202.64 4.11719H5178.84V120H5202.64V4.11719Z" fill="black"/>
</svg>
